<?xml version="1.0" encoding="utf-8"?>
<!-- Generator: Adobe Illustrator 24.0.1, SVG Export Plug-In . SVG Version: 6.00 Build 0)  -->
<svg version="1.1" id="Layer_1" xmlns="http://www.w3.org/2000/svg" xmlns:xlink="http://www.w3.org/1999/xlink" x="0px" y="0px"
	 viewBox="0 0 215.8 42.23" style="enable-background:new 0 0 215.8 42.23;" xml:space="preserve">
<style type="text/css">
	.st0{fill:#FFFFFF;}
</style>
<g>
	<path class="st0" d="M22.1,22.78v-5.51l-5.51,5.51H22.1z M0.74,21.2c0,11.1,9.01,20.2,20.2,20.2c11.1,0,20.2-9.01,20.2-20.2
		C41.05,10.01,32.04,1,20.94,1C9.75,1,0.74,10.01,0.74,21.2z M37.54,21.2c0,9.18-7.51,16.69-16.69,16.69
		c-6.26,0-11.68-3.51-14.52-8.6H29.2V6.76C34.21,9.68,37.54,15.02,37.54,21.2z M25.78,25.79c-2.09,0-13.77,0-20.86,0
		c-0.42-1.5-0.67-3-0.67-4.67c0-3.09,0.83-6.01,2.34-8.51l8.09,8.09l5.59-5.59l-8.18-8.18c2.5-1.59,5.51-2.5,8.68-2.5
		c1.67,0,3.34,0.25,4.92,0.75C25.78,12.35,25.78,23.7,25.78,25.79z"/>
	<path class="st0" d="M48.6,25.48c1.95,2.14,4.03,2.92,6.47,2.92c2.68,0,6.57-0.81,6.57-5.12c0-2.74-2.36-3.63-5.22-4.09l-1.37-0.22
		c-1.37-0.22-2-0.6-2-1.37c0-0.93,1.21-1.45,2.04-1.45c1.51,0,2.9,0.67,3.85,1.81l2.72-1.95c-1.61-1.79-3.95-2.76-6.33-2.76
		c-3.06,0-5.86,1.43-5.86,4.9c0,2.12,1.45,3.53,4.11,3.95l2.98,0.48c1.07,0.18,1.61,0.54,1.61,1.27c0,1.25-1.73,1.65-2.68,1.65
		c-1.71,0-2.9-0.66-4.15-1.79L48.6,25.48z M75.9,13.65h-3.59v9.05c0,1.61-0.62,2.8-2.5,2.8c-1.85,0-2.48-1.19-2.48-2.8v-9.05h-3.59
		V23c0,3.93,3.33,5.4,6.07,5.4c2.76,0,6.09-1.47,6.09-5.4C75.9,23,75.9,13.65,75.9,13.65z M78.69,28h3.26v-9.03h0.04L87.25,28h3.59
		V13.65h-3.26v9.17h-0.04l-5.22-9.17h-3.63C78.69,13.65,78.69,28,78.69,28z M93.53,28h5.56c4.37,0,7.32-2.08,7.32-7.17
		s-2.94-7.17-7.32-7.17h-5.56V28z M97.11,16.68h2.04c2.7,0,3.67,1.83,3.67,4.15s-0.97,4.15-3.65,4.15h-2.06V16.68z M112.15,16.31
		h3.28c1.15,0.02,1.92,0.6,1.92,1.93s-0.77,1.91-1.92,1.93h-3.28V16.31z M108.57,28h3.59v-5.16h2.28l2.82,5.16h4.01l-3.29-5.76
		c1.79-0.52,2.96-2.02,2.96-3.87c0-3.22-1.97-4.72-5.2-4.72h-7.18V28H108.57z M135.26,13.65h-3.59v9.05c0,1.61-0.62,2.8-2.5,2.8
		c-1.85,0-2.48-1.19-2.48-2.8v-9.05h-3.59V23c0,3.93,3.33,5.4,6.07,5.4c2.76,0,6.09-1.47,6.09-5.4V13.65z M137.97,28h3.26V16.86
		h0.04L144.2,28h3.16l2.84-11.15h0.04V28h3.39V13.65h-5.2l-2.62,10.66h-0.04l-2.54-10.66h-5.26L137.97,28L137.97,28z M160.61,28
		h3.83l0.73-2.26h5.3L171.2,28h3.85l-5.42-14.35h-3.71L160.61,28z M166.01,23.09l1.77-5.93h0.04l1.77,5.93H166.01z M180.07,16.31
		h3.29c1.15,0.02,1.91,0.6,1.91,1.93s-0.77,1.91-1.91,1.93h-3.29V16.31z M176.49,28h3.59v-5.16h2.28l2.82,5.16h4.01l-3.29-5.76
		c1.79-0.52,2.96-2.02,2.96-3.87c0-3.22-1.98-4.72-5.2-4.72h-7.18L176.49,28L176.49,28z M189.88,16.44h3.75V28h3.59V16.44h3.75
		v-2.78h-11.08L189.88,16.44L189.88,16.44z M201.25,25.48c1.95,2.14,4.03,2.92,6.47,2.92c2.68,0,6.57-0.81,6.57-5.12
		c0-2.74-2.36-3.63-5.22-4.09l-1.37-0.22c-1.37-0.22-1.99-0.6-1.99-1.37c0-0.93,1.21-1.45,2.04-1.45c1.51,0,2.9,0.67,3.85,1.81
		l2.72-1.95c-1.61-1.79-3.95-2.76-6.33-2.76c-3.06,0-5.87,1.43-5.87,4.9c0,2.12,1.45,3.53,4.11,3.95l2.98,0.48
		c1.07,0.18,1.61,0.54,1.61,1.27c0,1.25-1.73,1.65-2.68,1.65c-1.71,0-2.9-0.66-4.15-1.79L201.25,25.48z"/>
</g>
</svg>
