<svg width="195" height="171" viewBox="0 0 195 171" fill="none" xmlns="http://www.w3.org/2000/svg">
<rect x="5.94107" y="6.8295" width="182.474" height="157.341" fill="#FFFDFD"/>
<rect x="5.94107" y="6.8295" width="182.474" height="157.341" fill="#FFFDFD"/>
<rect x="5.94107" y="6.8295" width="182.474" height="157.341" fill="#FFFDFD"/>
<rect x="5.94107" y="6.8295" width="182.474" height="157.341" fill="#FFFDFD"/>
<rect x="5.94107" y="6.8295" width="182.474" height="157.341" stroke="black" stroke-width="11.8821"/>
<rect x="95.8633" y="75.8356" width="19.7365" height="22.5851" fill="black"/>
<rect x="122.649" y="53.2507" width="19.7365" height="45.1703" fill="black"/>
<rect x="149.434" y="68.7782" width="19.7365" height="29.643" fill="black"/>
<rect x="29.2106" y="113.545" width="50.1298" height="48.7964" fill="white" stroke="black" stroke-width="10.4896"/>
<rect x="8.21191" y="24.3846" width="180.669" height="15.6643" fill="black"/>
<rect x="101.108" y="113.545" width="62.8176" height="48.7964" fill="white" stroke="black" stroke-width="10.4896"/>
<path fill-rule="evenodd" clip-rule="evenodd" d="M53.5239 50.2309V74.2043H77.4663C77.4663 87.4443 66.7469 98.1774 53.5239 98.1774C40.3009 98.1774 29.5815 87.4442 29.5815 74.2042C29.5815 60.9641 40.3009 50.2309 53.5239 50.2309Z" fill="black"/>
<path fill-rule="evenodd" clip-rule="evenodd" d="M59.1558 46.0412V68.5651H81.6493C80.9481 56.4472 71.2579 46.744 59.1558 46.0412Z" fill="black"/>
<rect x="42" y="129" width="24" height="6" fill="black"/>
<rect x="116" y="129" width="33" height="6" fill="black"/>
<rect x="42" y="142" width="24" height="6" fill="black"/>
<rect x="116" y="142" width="33" height="6" fill="black"/>
</svg>
