<?xml version="1.0" encoding="utf-8"?>
<!-- Generator: Adobe Illustrator 24.0.1, SVG Export Plug-In . SVG Version: 6.00 Build 0)  -->
<svg version="1.1" id="Layer_1" xmlns="http://www.w3.org/2000/svg" xmlns:xlink="http://www.w3.org/1999/xlink" x="0px" y="0px"
	 viewBox="0 0 50 50" style="enable-background:new 0 0 50 50;" xml:space="preserve">
<style type="text/css">
	.st0{fill:#FFFDFD;}
	.st1{fill:#FFFFFF;}
	.st2{fill-rule:evenodd;clip-rule:evenodd;}
</style>
<g>
	<rect x="70.07" y="18.92" width="26" height="3.46"/>
	<rect x="70.07" y="27.46" width="26" height="3.46"/>
</g>
<g>
	<g>
		<rect x="8.72" y="115.4" class="st0" width="32.47" height="28"/>
	</g>
	<g>
		<rect x="8.72" y="115.4" class="st0" width="32.47" height="28"/>
	</g>
	<g>
		<rect x="8.72" y="115.4" class="st0" width="32.47" height="28"/>
	</g>
	<g>
		<rect x="8.72" y="115.4" class="st0" width="32.47" height="28"/>
	</g>
	<g>
		<path d="M42.24,144.45H7.66v-30.11h34.59L42.24,144.45L42.24,144.45z M9.77,142.34h30.36v-25.88H9.77V142.34z"/>
	</g>
	<g>
		<rect x="24.72" y="127.68" width="3.51" height="4.02"/>
	</g>
	<g>
		<rect x="29.48" y="123.66" width="3.51" height="8.04"/>
	</g>
	<g>
		<rect x="34.25" y="126.42" width="3.51" height="5.27"/>
	</g>
	<g>
		<rect x="12.86" y="134.39" class="st1" width="8.92" height="8.68"/>
		<path d="M22.71,144H11.92v-10.55h10.79V144z M13.79,142.14h7.05v-6.82h-7.05V142.14z"/>
	</g>
	<g>
		<rect x="9.12" y="118.52" width="32.15" height="2.79"/>
	</g>
	<g>
		<rect x="25.65" y="134.39" class="st1" width="11.18" height="8.68"/>
		<path d="M37.76,144H24.72v-10.55h13.05V144z M26.58,142.14h9.31v-6.82h-9.31C26.58,135.32,26.58,142.14,26.58,142.14z"/>
	</g>
	<g>
		<path class="st2" d="M17.18,123.12v4.27h4.26c0,2.36-1.91,4.27-4.26,4.27s-4.26-1.91-4.26-4.27S14.83,123.12,17.18,123.12z"/>
	</g>
	<g>
		<path class="st2" d="M18.18,122.37v4.01h4C22.06,124.22,20.34,122.5,18.18,122.37z"/>
	</g>
</g>
<g>
	<g>
		<path class="st1" d="M41.26,22.03c0-6.74-7.28-12.2-16.27-12.2S8.72,15.29,8.72,22.03c0,6.24,6.24,11.38,14.29,12.11l0.28,4.9
			l5.4-5.12C35.89,32.66,41.26,27.81,41.26,22.03z"/>
		<path d="M22.43,41.2l-0.35-6.18c-8.23-1.06-14.33-6.54-14.33-12.99c0-7.27,7.74-13.18,17.25-13.18c9.51,0,17.25,5.91,17.25,13.18
			c0,6.11-5.37,11.34-13.09,12.79L22.43,41.2z M24.99,10.8c-8.43,0-15.29,5.04-15.29,11.23c0,5.65,5.76,10.44,13.4,11.14l0.84,0.08
			l0.21,3.64L28.23,33l0.29-0.05c6.92-1.21,11.76-5.7,11.76-10.92C40.28,15.84,33.42,10.8,24.99,10.8z"/>
	</g>
	<g>
		<circle cx="19.49" cy="22.13" r="1.97"/>
	</g>
	<g>
		<circle cx="25.34" cy="22.13" r="1.97"/>
	</g>
	<g>
		<circle cx="31.18" cy="22.13" r="1.97"/>
	</g>
</g>
<g>
	<g>
		<rect x="8.8" y="152.09" class="st0" width="32.41" height="27.88"/>
	</g>
	<g>
		<rect x="8.8" y="152.09" class="st0" width="32.41" height="27.88"/>
	</g>
	<g>
		<rect x="8.8" y="152.09" class="st0" width="32.41" height="27.88"/>
	</g>
	<g>
		<rect x="8.8" y="152.09" class="st0" width="32.41" height="27.88"/>
	</g>
	<g>
		<path d="M42.24,181H7.78v-29.94h34.46V181z M9.83,178.94h30.35v-25.82H9.83V178.94z"/>
	</g>
	<g>
		<circle cx="20.34" cy="160.95" r="4.01"/>
	</g>
	<g>
		<path d="M18.06,168.48l7.19,5.19l8.49-11.27l8.49,11.27v6.26H7.78l0.08-0.09L18.06,168.48z"/>
	</g>
</g>
</svg>
