<?xml version="1.0" encoding="utf-8"?>
<!-- Generator: Adobe Illustrator 24.0.1, SVG Export Plug-In . SVG Version: 6.00 Build 0)  -->
<svg version="1.1" id="Layer_1" xmlns="http://www.w3.org/2000/svg" xmlns:xlink="http://www.w3.org/1999/xlink" x="0px" y="0px"
	 viewBox="0 0 50 50" style="enable-background:new 0 0 50 50;" xml:space="preserve">
<style type="text/css">
	.st0{fill:#FFFDFD;}
	.st1{fill:#FFFFFF;}
	.st2{fill-rule:evenodd;clip-rule:evenodd;}
	.st3{clip-path:url(#SVGID_2_);}
</style>
<g>
	<rect x="98.09" y="65.62" width="26" height="3.46"/>
	<rect x="98.09" y="74.16" width="26" height="3.46"/>
</g>
<g>
	<g>
		<rect x="8.72" y="115.4" class="st0" width="32.47" height="28"/>
	</g>
	<g>
		<rect x="8.72" y="115.4" class="st0" width="32.47" height="28"/>
	</g>
	<g>
		<rect x="8.72" y="115.4" class="st0" width="32.47" height="28"/>
	</g>
	<g>
		<rect x="8.72" y="115.4" class="st0" width="32.47" height="28"/>
	</g>
	<g>
		<path d="M42.24,144.45H7.66v-30.11h34.59L42.24,144.45L42.24,144.45z M9.77,142.34h30.36v-25.88H9.77V142.34z"/>
	</g>
	<g>
		<rect x="24.72" y="127.68" width="3.51" height="4.02"/>
	</g>
	<g>
		<rect x="29.48" y="123.66" width="3.51" height="8.04"/>
	</g>
	<g>
		<rect x="34.25" y="126.42" width="3.51" height="5.27"/>
	</g>
	<g>
		<rect x="12.86" y="134.39" class="st1" width="8.92" height="8.68"/>
		<path d="M22.71,144H11.92v-10.55h10.79V144z M13.79,142.14h7.05v-6.82h-7.05V142.14z"/>
	</g>
	<g>
		<rect x="9.12" y="118.52" width="32.15" height="2.79"/>
	</g>
	<g>
		<rect x="25.65" y="134.39" class="st1" width="11.18" height="8.68"/>
		<path d="M37.76,144H24.72v-10.55h13.05V144H37.76z M26.58,142.14h9.31v-6.82h-9.31C26.58,135.32,26.58,142.14,26.58,142.14z"/>
	</g>
	<g>
		<path class="st2" d="M17.18,123.12v4.27h4.26c0,2.36-1.91,4.27-4.26,4.27s-4.26-1.91-4.26-4.27S14.83,123.12,17.18,123.12z"/>
	</g>
	<g>
		<path class="st2" d="M18.18,122.37v4.01h4C22.06,124.22,20.34,122.5,18.18,122.37z"/>
	</g>
</g>
<g>
	<g>
		<path class="st1" d="M-49.27-5.68c0-6.74-7.28-12.2-16.27-12.2s-16.27,5.46-16.27,12.2c0,6.24,6.24,11.38,14.29,12.11l0.28,4.9
			l5.4-5.12C-54.64,4.95-49.27,0.1-49.27-5.68z"/>
		<path d="M-68.1,13.49l-0.35-6.18c-8.23-1.06-14.33-6.54-14.33-12.99c0-7.27,7.74-13.18,17.25-13.18s17.25,5.91,17.25,13.18
			c0,6.11-5.37,11.34-13.09,12.79L-68.1,13.49z M-65.54-16.91c-8.43,0-15.29,5.04-15.29,11.23c0,5.65,5.76,10.44,13.4,11.14
			l0.84,0.08l0.21,3.64l4.08-3.89l0.29-0.05c6.92-1.21,11.76-5.7,11.76-10.92C-50.25-11.87-57.11-16.91-65.54-16.91z"/>
	</g>
	<g>
		<circle cx="-71.04" cy="-5.58" r="1.97"/>
	</g>
	<g>
		<circle cx="-65.19" cy="-5.58" r="1.97"/>
	</g>
	<g>
		<circle cx="-59.35" cy="-5.58" r="1.97"/>
	</g>
</g>
<g>
	<g>
		<rect x="8.8" y="152.09" class="st0" width="32.41" height="27.88"/>
	</g>
	<g>
		<rect x="8.8" y="152.09" class="st0" width="32.41" height="27.88"/>
	</g>
	<g>
		<rect x="8.8" y="152.09" class="st0" width="32.41" height="27.88"/>
	</g>
	<g>
		<rect x="8.8" y="152.09" class="st0" width="32.41" height="27.88"/>
	</g>
	<g>
		<path d="M42.24,181H7.78v-29.94h34.46C42.24,151.06,42.24,181,42.24,181z M9.83,178.94h30.35v-25.82H9.83V178.94z"/>
	</g>
	<g>
		<circle cx="20.34" cy="160.95" r="4.01"/>
	</g>
	<g>
		<path d="M18.06,168.48l7.19,5.19l8.49-11.27l8.49,11.27v6.26H7.78l0.08-0.09L18.06,168.48z"/>
	</g>
</g>
<g>
	<defs>
		<rect id="SVGID_1_" x="8.45" y="8.45" width="33.1" height="33.1"/>
	</defs>
	<clipPath id="SVGID_2_">
		<use xlink:href="#SVGID_1_"  style="overflow:visible;"/>
	</clipPath>
	<g class="st3">
		<path d="M25.99,26.34v-4.52l-4.52,4.52H25.99z M8.45,25.03c0,9.11,7.4,16.58,16.58,16.58c9.11,0,16.58-7.4,16.58-16.58
			c-0.07-9.18-7.47-16.58-16.58-16.58C15.85,8.45,8.45,15.85,8.45,25.03z M38.67,25.03c0,7.54-6.17,13.71-13.71,13.71
			c-5.14,0-9.59-2.88-11.92-7.06h18.78v-18.5C35.93,15.58,38.67,19.96,38.67,25.03z M29.01,28.8c-1.71,0-11.31,0-17.13,0
			c-0.34-1.23-0.55-2.47-0.55-3.84c0-2.54,0.69-4.93,1.92-6.99l6.65,6.65l4.59-4.59l-6.72-6.72c2.06-1.3,4.52-2.06,7.13-2.06
			c1.37,0,2.74,0.21,4.04,0.62C29.01,17.77,29.01,27.09,29.01,28.8z"/>
	</g>
</g>
</svg>
